# xmcd CD database file
#
# Track frame offsets:
#	150
#	1600
#	3107
#	11121
#	18863
#	31063
#	39997
#	57986
#	65707
#	77043
#	86622
#	96991
#	104259
#	114709
#	122587
#	135238
#	142449
#	153536
#	161000
#	169963
#	177634
#	185493
#	193825
#	212374
#
# Disc length: 3702 seconds
#
# Revision: 0
# Processed by: cddbd v1.5.2PL0 Copyright (c) Steve Scherf et al.
# Submitted via: CDex 1.70beta2
#
DISCID=3f0e7418
DTITLE=Jim Snidero - Jazz Conception for Alto and Baritone Saxophone
DYEAR=1900
DGENRE=Jazz
TTITLE0=Tuning Notes (A)
TTITLE1=Tuning Notes (Bb)
TTITLE2=Groove Blues
TTITLE3=Amen
TTITLE4=A Doll
TTITLE5=Total Blues
TTITLE6=Grease
TTITLE7=Rose
TTITLE8=Joe's Thing
TTITLE9=Proxy
TTITLE10=Father Song
TTITLE11=Ind Line
TTITLE12=Miles
TTITLE13=Blue Minor
TTITLE14=Autumn
TTITLE15=Friends
TTITLE16=Great Love
TTITLE17=Two plus two
TTITLE18=Lunar
TTITLE19=Tunisia
TTITLE20=Bird Blues
TTITLE21=Somewhere
TTITLE22=Passage
TTITLE23=mp3 data track
EXTD=
EXTT0=
EXTT1=
EXTT2=
EXTT3=
EXTT4=
EXTT5=
EXTT6=
EXTT7=
EXTT8=
EXTT9=
EXTT10=
EXTT11=
EXTT12=
EXTT13=
EXTT14=
EXTT15=
EXTT16=
EXTT17=
EXTT18=
EXTT19=
EXTT20=
EXTT21=
EXTT22=
EXTT23=
PLAYORDER=
